<?xml version="1.0" encoding="utf-8"?>
<svg viewBox="0 0 772 225" width="772px" height="225px" xmlns="http://www.w3.org/2000/svg">
  <g style="" transform="matrix(1.776392, 0, 0, 1.802587, 31.443024, -125.716873)">
    <g style="" transform="matrix(0.108164, 0, 0, 0.10909, 14.434983, 67.631416)">
      <svg x="708" y="361" width="393" height="482" overflow="visible" transform="matrix(1, 0, 0, 1, 708, 360.99999999999994)">
        <svg width="393" height="482" xmlns="http://www.w3.org/2000/svg" viewBox="0.597 0 391.807 482">
          <svg xmlns="http://www.w3.org/2000/svg" width="393" height="482" viewBox="1.846 1.584 390.467 480.352" fill="#03a9f4">
            <path fill="#03a9f4" paint-order="stroke fill markers" fill-rule="evenodd" d="M1.846 240.76L331.757 1.583c39.79 72.072 61.892 155.06 60.494 243.457-1.357 85.712-24.598 166.37-64.36 236.895L1.847 240.759z"/>
          </svg>
        </svg>
      </svg>
      <svg x="99" y="100" width="893" height="1000" overflow="visible" transform="matrix(1, 0, 0, 1, 99, 100)">
        <svg width="893" height="1000" xmlns="http://www.w3.org/2000/svg" viewBox="0.09 0 892.819 1000">
          <svg xmlns="http://www.w3.org/2000/svg" width="893" height="1000" viewBox="1.083 1.946 891.646 998.686" fill="#000">
            <path fill="#000" paint-order="stroke fill markers" fill-rule="evenodd" d="M771.027 262.923c-38.977-34.792-76.071-59.713-111.28-74.758-40.93-17.458-88.972-26.208-144.147-26.208-97.485 0-179.323 31.51-245.534 94.488-66.211 63-99.317 143.458-99.317 241.395 0 97.938 32.869 179.797 98.627 245.534C335.114 809.132 413.05 842 503.185 842c56.081 0 104.36-9.419 144.837-28.278 35.867-16.701 73.195-42.3 111.961-76.726l118.264 95.627c-101.787 112-225.21 168.008-370.234 168.008-145.764 0-266.699-46.9-362.782-140.7C49.125 766.135 1.083 647.506 1.083 504.049c0-143.458 48.97-262.991 146.906-358.644C245.927 49.772 369.6 1.946 519.048 1.946c149.02 0 273.578 54.88 373.681 164.63l-121.702 96.347z"/>
          </svg>
        </svg>
      </svg>
    </g>
    <svg xmlns="http://www.w3.org/2000/svg" width="431" height="177" viewBox="1.761 1.811 429.059 175.125" fill="#000" transform="matrix(1.0045238756547663, 0, 0, 1.0045238756547663, -1.7689664626410035, -1.2778145902933886)">
      <path fill="#000" paint-order="stroke fill markers" fill-rule="evenodd" d="M 165.058 81.796 L 150.559 81.796 L 150.559 175.932 L 165.058 175.932 L 165.058 81.796 Z M 241.823 130.665 C 241.823 121.748 239.254 115.213 234.12 111.06 C 228.985 106.909 222.36 104.831 214.249 104.831 C 203.634 104.831 194.139 108.198 185.769 114.928 L 192.242 124.108 C 199.146 119.387 205.79 117.027 212.178 117.027 C 222.36 117.027 227.453 121.661 227.453 130.927 L 227.453 133.55 L 208.682 133.55 C 200.138 133.55 193.362 135.255 188.358 138.664 C 183.352 142.074 180.85 147.211 180.85 154.073 C 180.85 160.937 183.2 166.422 187.906 170.53 C 192.608 174.64 198.541 176.694 205.705 176.694 C 215.285 176.694 222.922 173.241 228.618 166.334 L 228.618 175.644 L 241.823 175.644 L 241.823 130.665 Z M 222.146 160.302 C 218.693 162.924 214.658 164.236 210.042 164.236 C 205.424 164.236 201.821 163.34 199.232 161.547 C 196.643 159.756 195.349 157.154 195.349 153.745 C 195.349 147.102 200.57 143.778 211.013 143.778 L 227.324 143.778 L 227.324 149.68 C 227.324 154.138 225.597 157.679 222.146 160.302 Z M 298.911 119.649 L 298.782 104.831 C 294.293 104.919 290.043 106.362 286.03 109.158 C 282.017 111.957 278.846 115.541 276.515 119.912 L 276.515 105.88 L 262.017 105.88 L 262.017 175.644 L 276.515 175.644 L 276.515 145.745 C 276.515 137.791 278.328 131.452 281.953 126.731 C 285.577 122.01 290.97 119.649 298.134 119.649 L 298.911 119.649 Z M 322.082 140.762 C 322.082 134.032 324.131 128.546 328.231 124.305 C 332.33 120.066 337.53 117.945 343.831 117.945 C 350.13 117.945 355.33 120.066 359.43 124.305 C 363.528 128.546 365.579 134.032 365.579 140.762 C 365.579 147.495 363.528 152.981 359.43 157.22 C 355.33 161.461 350.13 163.58 343.831 163.58 C 337.53 163.58 332.33 161.461 328.231 157.22 C 324.132 152.981 322.082 147.495 322.082 140.762 Z M 380.078 140.762 C 380.078 130.71 376.625 122.207 369.722 115.256 C 362.816 108.306 354.187 104.831 343.831 104.831 C 333.474 104.831 324.844 108.306 317.94 115.256 C 311.034 122.207 307.583 130.71 307.583 140.762 C 307.583 150.817 311.034 159.318 317.94 166.268 C 324.844 173.218 333.474 176.694 343.831 176.694 C 354.187 176.694 362.816 173.218 369.722 166.268 C 376.625 159.318 380.078 150.817 380.078 140.762 Z" style=""/>
    </svg>
  </g>
</svg>